<svg xmlns="http://www.w3.org/2000/svg" width="1440" height="960" viewBox="0 0 1440 960">
  <defs>
    <radialGradient id="fire" cx="0.23" cy="0.15" r="0.85">
      <stop offset="0" stop-color="#8A3F18"/>
      <stop offset="0.52" stop-color="#28140A"/>
      <stop offset="1" stop-color="#120805"/>
    </radialGradient>
    <linearGradient id="wood" x1="0" y1="0" x2="1" y2="1">
      <stop offset="0" stop-color="#5A2F16"/>
      <stop offset="0.55" stop-color="#3A2114"/>
      <stop offset="1" stop-color="#1E0F08"/>
    </linearGradient>
    <linearGradient id="parch" x1="0" y1="0" x2="1" y2="1">
      <stop offset="0" stop-color="#F4DFAE"/>
      <stop offset="1" stop-color="#C8944E"/>
    </linearGradient>
    <filter id="softGlow" x="-40%" y="-40%" width="180%" height="180%">
      <feGaussianBlur stdDeviation="7" result="blur"/>
      <feMerge><feMergeNode in="blur"/><feMergeNode in="SourceGraphic"/></feMerge>
    </filter>
    <filter id="shadow" x="-30%" y="-30%" width="160%" height="160%">
      <feDropShadow dx="0" dy="10" stdDeviation="10" flood-color="#000000" flood-opacity="0.42"/>
    </filter>
    <pattern id="grain" width="120" height="80" patternUnits="userSpaceOnUse">
      <path d="M0 24 C30 4, 72 44, 120 18" fill="none" stroke="#8A5127" stroke-opacity="0.18"/>
      <path d="M0 60 C44 38, 74 82, 120 58" fill="none" stroke="#FFD36E" stroke-opacity="0.08"/>
      <circle cx="28" cy="42" r="7" fill="none" stroke="#FFD36E" stroke-opacity="0.08"/>
    </pattern>
    <style>
      .title { font: 900 34px 'Segoe UI', 'Noto Sans SC', Arial, sans-serif; fill: #FFF2D4; letter-spacing: .5px; }
      .sub { font: 600 16px 'Segoe UI', 'Noto Sans SC', Arial, sans-serif; fill: #C9A875; }
      .h1 { font: 900 24px 'Segoe UI', 'Noto Sans SC', Arial, sans-serif; fill: #FFF2D4; }
      .h2 { font: 800 18px 'Segoe UI', 'Noto Sans SC', Arial, sans-serif; fill: #FFF2D4; }
      .body { font: 600 14px 'Segoe UI', 'Noto Sans SC', Arial, sans-serif; fill: #E8C98B; }
      .tiny { font: 800 12px 'Segoe UI', 'Noto Sans SC', Arial, sans-serif; fill: #C9A875; letter-spacing: .3px; }
      .label { font: 900 11px 'Segoe UI', 'Noto Sans SC', Arial, sans-serif; fill: #34E6D2; letter-spacing: 1.8px; }
      .note { font: 700 13px 'Segoe UI', 'Noto Sans SC', Arial, sans-serif; fill: #FFD36E; }
      .dark { fill: #2A160B; }
</style>
  </defs>
  <rect width="1440" height="960" fill="url(#fire)"/>
  <rect width="1440" height="960" fill="url(#grain)" opacity="0.95"/>
  <circle cx="168" cy="132" r="220" fill="#FF7A24" opacity="0.16" filter="url(#softGlow)"/>
  <circle cx="1184" cy="128" r="240" fill="#34E6D2" opacity="0.08" filter="url(#softGlow)"/>
  <text x="64" y="62" class="title">访客对话 / Chat Runtime</text>
  <text x="64" y="90" class="sub">坐在暖色木桌边聊天；赛博元素只用于状态、记忆与地图锚点</text>
  <text x="1140" y="60" class="label">FABLEMAP COZY CYBER TAVERN</text>
<rect x="64" y="118" width="1312" height="64" rx="30" fill="#24130B" stroke="#D69A35" stroke-width="1.4" opacity="0.94" filter="url(#shadow)"/>
<rect x="84" y="132" width="44" height="36" rx="14" fill="url(#parch)" stroke="#FFD36E" stroke-width="1.4" opacity="1" />
<text x="95" y="157" class="h2" fill="#2A160B">FM</text>
<text x="146" y="157" class="h2">FableMap</text>
<rect x="310" y="133" width="88" height="34" rx="17" fill="url(#parch)" stroke="#34E6D2" stroke-width="1.4" opacity="1" />
<text x="326" y="155" class="tiny" fill="#2A160B">发现</text>
<rect x="418" y="133" width="88" height="34" rx="17" fill="#D69A35" stroke="#D69A35" stroke-width="1.4" opacity="0.18" />
<text x="434" y="155" class="tiny" fill="#D69A35">开店</text>
<rect x="526" y="133" width="88" height="34" rx="17" fill="#D69A35" stroke="#D69A35" stroke-width="1.4" opacity="0.18" />
<text x="542" y="155" class="tiny" fill="#D69A35">我的酒馆</text>
<rect x="634" y="133" width="88" height="34" rx="17" fill="#D69A35" stroke="#D69A35" stroke-width="1.4" opacity="0.18" />
<text x="650" y="155" class="tiny" fill="#D69A35">设置</text>
<text x="1138" y="157" class="tiny">demo-owner · API Key 仅店主本地私有</text>
<rect x="64" y="214" width="298" height="650" rx="30" fill="#2A170E" stroke="#D69A35" stroke-width="1.4" opacity="1" filter="url(#shadow)"/>
<text x="96" y="258" class="h1">桌边角色</text>
<rect x="96" y="304" width="232" height="88" rx="24" fill="#3A2114" stroke="#34E6D2" stroke-width="1.4" opacity="1" filter="url(#shadow)"/>
<circle cx="130" cy="348" r="22" fill="#34E6D2" opacity="0.30"/>
<text x="166" y="342" class="h2">露西</text>
<text x="166" y="366" class="tiny" fill="#34E6D2">active</text>
<rect x="96" y="422" width="232" height="88" rx="24" fill="#3A2114" stroke="#B78CFF" stroke-width="1.4" opacity="1" filter="url(#shadow)"/>
<circle cx="130" cy="466" r="22" fill="#B78CFF" opacity="0.30"/>
<text x="166" y="460" class="h2">灰鸦</text>
<text x="166" y="484" class="tiny" fill="#B78CFF">cooldown</text>
<rect x="96" y="540" width="232" height="88" rx="24" fill="#3A2114" stroke="#FFD36E" stroke-width="1.4" opacity="1" filter="url(#shadow)"/>
<circle cx="130" cy="584" r="22" fill="#FFD36E" opacity="0.30"/>
<text x="166" y="578" class="h2">M-17</text>
<text x="166" y="602" class="tiny" fill="#FFD36E">listening</text>
<rect x="96" y="684" width="232" height="120" rx="24" fill="#3A2114" stroke="#FFD36E" stroke-width="1.4" opacity="1" filter="url(#shadow)"/>
<text x="120" y="720" class="h2">访客状态</text>
<text x="120" y="748" class="body">关系：acquaintance</text>
<text x="120" y="774" class="body">访问：第 3 次 · 记忆 6 条</text>
<rect x="392" y="214" width="618" height="650" rx="30" fill="#2A170E" stroke="#D69A35" stroke-width="1.4" opacity="1" filter="url(#shadow)"/>
<text x="426" y="258" class="h1">雨巷电台 · 露西</text>
<text x="426" y="286" class="sub">AI 不可用时用规则 fallback，不中断状态写回</text>
<rect x="430" y="330" width="500" height="72" rx="22" fill="#3A2114" stroke="#34E6D2" stroke-width="1.4" opacity="1" filter="url(#shadow)"/>
<text x="454" y="356" class="tiny" fill="#34E6D2">露西</text>
<text x="454" y="382" class="body" fill="#FFF2D4">今天的雨声很适合讲旧事。</text>
<rect x="548" y="438" width="420" height="72" rx="22" fill="#4A2A19" stroke="#B78CFF" stroke-width="1.4" opacity="1" filter="url(#shadow)"/>
<text x="572" y="464" class="tiny" fill="#B78CFF">你</text>
<text x="572" y="490" class="body" fill="#FFF2D4">我上次问过桥边的灯。</text>
<rect x="430" y="546" width="500" height="72" rx="22" fill="#3A2114" stroke="#34E6D2" stroke-width="1.4" opacity="1" filter="url(#shadow)"/>
<text x="454" y="572" class="tiny" fill="#34E6D2">露西</text>
<text x="454" y="598" class="body" fill="#FFF2D4">我记得。那盏灯会在凌晨两点闪三下。</text>
<rect x="430" y="654" width="500" height="72" rx="22" fill="#3A2C16" stroke="#FFD36E" stroke-width="1.4" opacity="1" filter="url(#shadow)"/>
<text x="454" y="680" class="tiny" fill="#FFD36E">系统</text>
<text x="454" y="706" class="body" fill="#FFF2D4">已写入一条 visitor_tavern 记忆。</text>
<rect x="426" y="764" width="548" height="58" rx="29" fill="url(#parch)" stroke="#FFD36E" stroke-width="1.4" opacity="1" filter="url(#shadow)"/>
<text x="454" y="800" class="body" fill="#2A160B">输入消息；Shift+Enter 换行</text>
<rect x="838" y="771" width="112" height="44" rx="22" fill="url(#parch)" stroke="#FFD36E" stroke-width="1.4" opacity="1" filter="url(#shadow)"/>
<text x="860" y="799" class="body" fill="#2A160B">发送</text>
<rect x="1040" y="214" width="336" height="650" rx="30" fill="#2A170E" stroke="#D69A35" stroke-width="1.4" opacity="1" filter="url(#shadow)"/>
<text x="1072" y="258" class="h1">账本 / 记忆</text>
<rect x="1072" y="310" width="270" height="88" rx="24" fill="#3A2114" stroke="#34E6D2" stroke-width="1.4" opacity="1" filter="url(#shadow)"/>
<text x="1096" y="344" class="h2">WorldInfo 命中</text>
<text x="1096" y="372" class="body">桥边、旧电台、雨夜</text>
<rect x="1072" y="434" width="270" height="88" rx="24" fill="#3A2114" stroke="#B78CFF" stroke-width="1.4" opacity="1" filter="url(#shadow)"/>
<text x="1096" y="468" class="h2">Prompt Blocks</text>
<text x="1096" y="496" class="body">角色、场景、访客摘要</text>
<rect x="1072" y="558" width="270" height="88" rx="24" fill="#3A2114" stroke="#FFD36E" stroke-width="1.4" opacity="1" filter="url(#shadow)"/>
<text x="1096" y="592" class="h2">Memory Atoms</text>
<text x="1096" y="620" class="body">私有/公开/owner 可见性</text>
<rect x="1072" y="682" width="270" height="88" rx="24" fill="#3A2114" stroke="#8BE082" stroke-width="1.4" opacity="1" filter="url(#shadow)"/>
<text x="1096" y="716" class="h2">Token 预算</text>
<text x="1096" y="744" class="body">估算 1.2k / 4k</text>
<text x="72" y="902" class="note">视觉约束：对话像酒馆便签/账本，不出现法力水晶、对战框或任何特定卡牌符号。</text>
</svg>
