<svg xmlns="http://www.w3.org/2000/svg" width="1440" height="960" viewBox="0 0 1440 960">
  <defs>
    <radialGradient id="fire" cx="0.23" cy="0.15" r="0.85">
      <stop offset="0" stop-color="#8A3F18"/>
      <stop offset="0.52" stop-color="#28140A"/>
      <stop offset="1" stop-color="#120805"/>
    </radialGradient>
    <linearGradient id="wood" x1="0" y1="0" x2="1" y2="1">
      <stop offset="0" stop-color="#5A2F16"/>
      <stop offset="0.55" stop-color="#3A2114"/>
      <stop offset="1" stop-color="#1E0F08"/>
    </linearGradient>
    <linearGradient id="parch" x1="0" y1="0" x2="1" y2="1">
      <stop offset="0" stop-color="#F4DFAE"/>
      <stop offset="1" stop-color="#C8944E"/>
    </linearGradient>
    <filter id="softGlow" x="-40%" y="-40%" width="180%" height="180%">
      <feGaussianBlur stdDeviation="7" result="blur"/>
      <feMerge><feMergeNode in="blur"/><feMergeNode in="SourceGraphic"/></feMerge>
    </filter>
    <filter id="shadow" x="-30%" y="-30%" width="160%" height="160%">
      <feDropShadow dx="0" dy="10" stdDeviation="10" flood-color="#000000" flood-opacity="0.42"/>
    </filter>
    <pattern id="grain" width="120" height="80" patternUnits="userSpaceOnUse">
      <path d="M0 24 C30 4, 72 44, 120 18" fill="none" stroke="#8A5127" stroke-opacity="0.18"/>
      <path d="M0 60 C44 38, 74 82, 120 58" fill="none" stroke="#FFD36E" stroke-opacity="0.08"/>
      <circle cx="28" cy="42" r="7" fill="none" stroke="#FFD36E" stroke-opacity="0.08"/>
    </pattern>
    <style>
      .title { font: 900 34px 'Segoe UI', 'Noto Sans SC', Arial, sans-serif; fill: #FFF2D4; letter-spacing: .5px; }
      .sub { font: 600 16px 'Segoe UI', 'Noto Sans SC', Arial, sans-serif; fill: #C9A875; }
      .h1 { font: 900 24px 'Segoe UI', 'Noto Sans SC', Arial, sans-serif; fill: #FFF2D4; }
      .h2 { font: 800 18px 'Segoe UI', 'Noto Sans SC', Arial, sans-serif; fill: #FFF2D4; }
      .body { font: 600 14px 'Segoe UI', 'Noto Sans SC', Arial, sans-serif; fill: #E8C98B; }
      .tiny { font: 800 12px 'Segoe UI', 'Noto Sans SC', Arial, sans-serif; fill: #C9A875; letter-spacing: .3px; }
      .label { font: 900 11px 'Segoe UI', 'Noto Sans SC', Arial, sans-serif; fill: #34E6D2; letter-spacing: 1.8px; }
      .note { font: 700 13px 'Segoe UI', 'Noto Sans SC', Arial, sans-serif; fill: #FFD36E; }
      .dark { fill: #2A160B; }
</style>
  </defs>
  <rect width="1440" height="960" fill="url(#fire)"/>
  <rect width="1440" height="960" fill="url(#grain)" opacity="0.95"/>
  <circle cx="168" cy="132" r="220" fill="#FF7A24" opacity="0.16" filter="url(#softGlow)"/>
  <circle cx="1184" cy="128" r="240" fill="#34E6D2" opacity="0.08" filter="url(#softGlow)"/>
  <text x="64" y="62" class="title">店主管理台 / Owner Console</text>
  <text x="64" y="90" class="sub">像一本铜扣酒馆账本：主人主权配置，但保持现代清晰度</text>
  <text x="1140" y="60" class="label">FABLEMAP COZY CYBER TAVERN</text>
<rect x="64" y="118" width="1312" height="64" rx="30" fill="#24130B" stroke="#D69A35" stroke-width="1.4" opacity="0.94" filter="url(#shadow)"/>
<rect x="84" y="132" width="44" height="36" rx="14" fill="url(#parch)" stroke="#FFD36E" stroke-width="1.4" opacity="1" />
<text x="95" y="157" class="h2" fill="#2A160B">FM</text>
<text x="146" y="157" class="h2">FableMap</text>
<rect x="310" y="133" width="88" height="34" rx="17" fill="url(#parch)" stroke="#34E6D2" stroke-width="1.4" opacity="1" />
<text x="326" y="155" class="tiny" fill="#2A160B">发现</text>
<rect x="418" y="133" width="88" height="34" rx="17" fill="#D69A35" stroke="#D69A35" stroke-width="1.4" opacity="0.18" />
<text x="434" y="155" class="tiny" fill="#D69A35">开店</text>
<rect x="526" y="133" width="88" height="34" rx="17" fill="#D69A35" stroke="#D69A35" stroke-width="1.4" opacity="0.18" />
<text x="542" y="155" class="tiny" fill="#D69A35">我的酒馆</text>
<rect x="634" y="133" width="88" height="34" rx="17" fill="#D69A35" stroke="#D69A35" stroke-width="1.4" opacity="0.18" />
<text x="650" y="155" class="tiny" fill="#D69A35">设置</text>
<text x="1138" y="157" class="tiny">demo-owner · API Key 仅店主本地私有</text>
<rect x="64" y="214" width="300" height="650" rx="30" fill="#2A170E" stroke="#D69A35" stroke-width="1.4" opacity="1" filter="url(#shadow)"/>
<text x="96" y="258" class="h1">账本目录</text>
<rect x="96" y="304" width="228" height="46" rx="23" fill="#3A2114" stroke="#34E6D2" stroke-width="1.4" opacity="1" filter="url(#shadow)"/>
<text x="120" y="333" class="body" fill="#FFF2D4">基础信息</text>
<rect x="96" y="372" width="228" height="46" rx="23" fill="#3A2114" stroke="#B78CFF" stroke-width="1.4" opacity="1" filter="url(#shadow)"/>
<text x="120" y="401" class="body" fill="#FFF2D4">角色卡 / Sprites</text>
<rect x="96" y="440" width="228" height="46" rx="23" fill="#3A2114" stroke="#FFD36E" stroke-width="1.4" opacity="1" filter="url(#shadow)"/>
<text x="120" y="469" class="body" fill="#FFF2D4">WorldInfo</text>
<rect x="96" y="508" width="228" height="46" rx="23" fill="#3A2114" stroke="#8BE082" stroke-width="1.4" opacity="1" filter="url(#shadow)"/>
<text x="120" y="537" class="body" fill="#FFF2D4">Output Rules</text>
<rect x="96" y="576" width="228" height="46" rx="23" fill="#3A2114" stroke="#FF6E2D" stroke-width="1.4" opacity="1" filter="url(#shadow)"/>
<text x="120" y="605" class="body" fill="#FFF2D4">Prompt Blocks</text>
<rect x="96" y="644" width="228" height="46" rx="23" fill="#3A2114" stroke="#34E6D2" stroke-width="1.4" opacity="1" filter="url(#shadow)"/>
<text x="120" y="673" class="body" fill="#FFF2D4">Runtime Presets</text>
<rect x="96" y="712" width="228" height="46" rx="23" fill="#3A2114" stroke="#B78CFF" stroke-width="1.4" opacity="1" filter="url(#shadow)"/>
<text x="120" y="741" class="body" fill="#FFF2D4">导入 / 导出</text>
<rect x="392" y="214" width="604" height="650" rx="30" fill="#2A170E" stroke="#D69A35" stroke-width="1.4" opacity="1" filter="url(#shadow)"/>
<text x="426" y="258" class="h1">当前页：角色与世界书</text>
<rect x="426" y="300" width="248" height="220" rx="28" fill="#3A2114" stroke="#B78CFF" stroke-width="1.4" opacity="1" filter="url(#shadow)"/>
<text x="454" y="340" class="h2">角色卡</text>
<text x="454" y="378" class="body">• 名称 / 描述 / 性格</text>
<text x="454" y="410" class="body">• SillyTavern JSON/PNG 导入</text>
<text x="454" y="442" class="body">• Sprites 表情图映射</text>
<text x="454" y="474" class="body">• First message 预览</text>
<rect x="454" y="464" width="148" height="44" rx="22" fill="url(#parch)" stroke="#FFD36E" stroke-width="1.4" opacity="1" filter="url(#shadow)"/>
<text x="476" y="492" class="body" fill="#2A160B">导入角色卡</text>
<rect x="704" y="300" width="248" height="220" rx="28" fill="#3A2114" stroke="#FFD36E" stroke-width="1.4" opacity="1" filter="url(#shadow)"/>
<text x="732" y="340" class="h2">WorldInfo</text>
<text x="732" y="378" class="body">• 关键词 / 二级关键词</text>
<text x="732" y="410" class="body">• depth / order / probability</text>
<text x="732" y="442" class="body">• 禁用 / 常驻 / selective</text>
<text x="732" y="474" class="body">• 测试命中诊断</text>
<rect x="732" y="464" width="132" height="44" rx="22" fill="#3B2114" stroke="#D69A35" stroke-width="1.4" opacity="1" filter="url(#shadow)"/>
<text x="754" y="492" class="body" fill="#FFF2D4">测试命中</text>
<rect x="426" y="552" width="526" height="238" rx="28" fill="#3A2114" stroke="#34E6D2" stroke-width="1.4" opacity="1" filter="url(#shadow)"/>
<text x="454" y="592" class="h2">安全运行时</text>
<text x="454" y="632" class="h2">LLM API Key</text>
<text x="640" y="632" class="body">仅店主可写，不返回访客</text>
<text x="454" y="666" class="h2">Token 统计</text>
<text x="640" y="666" class="body">按 provider 估算，无平台计费</text>
<text x="454" y="700" class="h2">TTS / STT</text>
<text x="640" y="700" class="body">可关闭，有 browser fallback</text>
<text x="454" y="734" class="h2">Package 导出</text>
<text x="640" y="734" class="body">不含 password_hash / api_key / history</text>
<rect x="1026" y="214" width="350" height="650" rx="30" fill="#2A170E" stroke="#D69A35" stroke-width="1.4" opacity="1" filter="url(#shadow)"/>
<text x="1058" y="258" class="h1">发布前检查</text>
<circle cx="1074" cy="315" r="9" fill="#8BE082"/>
<text x="1098" y="320" class="body" fill="#FFF2D4">坐标已绑定真实位置</text>
<circle cx="1074" cy="373" r="9" fill="#8BE082"/>
<text x="1098" y="378" class="body" fill="#FFF2D4">至少 1 个 NPC</text>
<circle cx="1074" cy="431" r="9" fill="#8BE082"/>
<text x="1098" y="436" class="body" fill="#FFF2D4">访问规则已设置</text>
<circle cx="1074" cy="489" r="9" fill="#FFD36E"/>
<text x="1098" y="494" class="body" fill="#FFF2D4">LLM 配置已测试</text>
<circle cx="1074" cy="547" r="9" fill="#8BE082"/>
<text x="1098" y="552" class="body" fill="#FFF2D4">公开包已脱敏</text>
<circle cx="1074" cy="605" r="9" fill="#FF8F6B"/>
<text x="1098" y="610" class="body" fill="#FFF2D4">移动端预览待验收</text>
<rect x="1060" y="748" width="126" height="44" rx="22" fill="#3B2114" stroke="#D69A35" stroke-width="1.4" opacity="1" filter="url(#shadow)"/>
<text x="1082" y="776" class="body" fill="#FFF2D4">保存草稿</text>
<rect x="1204" y="748" width="116" height="44" rx="22" fill="url(#parch)" stroke="#FFD36E" stroke-width="1.4" opacity="1" filter="url(#shadow)"/>
<text x="1226" y="776" class="body" fill="#2A160B">发布</text>
<text x="72" y="902" class="note">视觉约束：管理台可像账本/工坊，但不替店主生成内容，也不变成泛 SaaS 后台。</text>
</svg>
