<svg xmlns="http://www.w3.org/2000/svg" width="1440" height="960" viewBox="0 0 1440 960">
  <defs>
    <radialGradient id="fire" cx="0.23" cy="0.15" r="0.85">
      <stop offset="0" stop-color="#8A3F18"/>
      <stop offset="0.52" stop-color="#28140A"/>
      <stop offset="1" stop-color="#120805"/>
    </radialGradient>
    <linearGradient id="wood" x1="0" y1="0" x2="1" y2="1">
      <stop offset="0" stop-color="#5A2F16"/>
      <stop offset="0.55" stop-color="#3A2114"/>
      <stop offset="1" stop-color="#1E0F08"/>
    </linearGradient>
    <linearGradient id="parch" x1="0" y1="0" x2="1" y2="1">
      <stop offset="0" stop-color="#F4DFAE"/>
      <stop offset="1" stop-color="#C8944E"/>
    </linearGradient>
    <filter id="softGlow" x="-40%" y="-40%" width="180%" height="180%">
      <feGaussianBlur stdDeviation="7" result="blur"/>
      <feMerge><feMergeNode in="blur"/><feMergeNode in="SourceGraphic"/></feMerge>
    </filter>
    <filter id="shadow" x="-30%" y="-30%" width="160%" height="160%">
      <feDropShadow dx="0" dy="10" stdDeviation="10" flood-color="#000000" flood-opacity="0.42"/>
    </filter>
    <pattern id="grain" width="120" height="80" patternUnits="userSpaceOnUse">
      <path d="M0 24 C30 4, 72 44, 120 18" fill="none" stroke="#8A5127" stroke-opacity="0.18"/>
      <path d="M0 60 C44 38, 74 82, 120 58" fill="none" stroke="#FFD36E" stroke-opacity="0.08"/>
      <circle cx="28" cy="42" r="7" fill="none" stroke="#FFD36E" stroke-opacity="0.08"/>
    </pattern>
    <style>
      .title { font: 900 34px 'Segoe UI', 'Noto Sans SC', Arial, sans-serif; fill: #FFF2D4; letter-spacing: .5px; }
      .sub { font: 600 16px 'Segoe UI', 'Noto Sans SC', Arial, sans-serif; fill: #C9A875; }
      .h1 { font: 900 24px 'Segoe UI', 'Noto Sans SC', Arial, sans-serif; fill: #FFF2D4; }
      .h2 { font: 800 18px 'Segoe UI', 'Noto Sans SC', Arial, sans-serif; fill: #FFF2D4; }
      .body { font: 600 14px 'Segoe UI', 'Noto Sans SC', Arial, sans-serif; fill: #E8C98B; }
      .tiny { font: 800 12px 'Segoe UI', 'Noto Sans SC', Arial, sans-serif; fill: #C9A875; letter-spacing: .3px; }
      .label { font: 900 11px 'Segoe UI', 'Noto Sans SC', Arial, sans-serif; fill: #34E6D2; letter-spacing: 1.8px; }
      .note { font: 700 13px 'Segoe UI', 'Noto Sans SC', Arial, sans-serif; fill: #FFD36E; }
      .dark { fill: #2A160B; }
</style>
  </defs>
  <rect width="1440" height="960" fill="url(#fire)"/>
  <rect width="1440" height="960" fill="url(#grain)" opacity="0.95"/>
  <circle cx="168" cy="132" r="220" fill="#FF7A24" opacity="0.16" filter="url(#softGlow)"/>
  <circle cx="1184" cy="128" r="240" fill="#34E6D2" opacity="0.08" filter="url(#softGlow)"/>
  <text x="64" y="62" class="title">移动端主链路 / Mobile Visitor Flow</text>
  <text x="64" y="90" class="sub">手机上像拿着一张发光酒馆传单：一屏一任务</text>
  <text x="1140" y="60" class="label">FABLEMAP COZY CYBER TAVERN</text>
<rect x="70" y="150" width="292" height="650" rx="44" fill="#1B0E07" stroke="#D69A35" stroke-width="1.4" opacity="1" filter="url(#shadow)"/>
<rect x="86" y="174" width="260" height="602" rx="34" fill="#2A170E" stroke="#FFD36E" stroke-width="1.4" opacity="1" filter="url(#shadow)"/>
<text x="108" y="222" class="h1">发现</text>
<text x="108" y="250" class="tiny">地图 + 酒馆卡片</text>
<rect x="108" y="284" width="216" height="250" rx="24" fill="url(#parch)" stroke="#D69A35" stroke-width="1.4" opacity="1" filter="url(#shadow)"/>
<circle cx="224" cy="392" r="10" fill="#34E6D2"/>
<rect x="108" y="558" width="216" height="84" rx="22" fill="#3A2114" stroke="#34E6D2" stroke-width="1.4" opacity="1" filter="url(#shadow)"/>
<text x="128" y="592" class="body">雨巷电台 · 800m</text>
<rect x="128" y="660" width="126" height="44" rx="22" fill="url(#parch)" stroke="#FFD36E" stroke-width="1.4" opacity="1" filter="url(#shadow)"/>
<text x="150" y="688" class="body" fill="#2A160B">进入</text>
<rect x="412" y="150" width="292" height="650" rx="44" fill="#1B0E07" stroke="#D69A35" stroke-width="1.4" opacity="1" filter="url(#shadow)"/>
<rect x="428" y="174" width="260" height="602" rx="34" fill="#2A170E" stroke="#FFD36E" stroke-width="1.4" opacity="1" filter="url(#shadow)"/>
<text x="450" y="222" class="h1">入口</text>
<text x="450" y="250" class="tiny">NPC + 入场承诺</text>
<rect x="450" y="286" width="216" height="120" rx="24" fill="url(#parch)" stroke="#FFD36E" stroke-width="1.4" opacity="1" filter="url(#shadow)"/>
<text x="472" y="330" class="h2" fill="#2A160B">雨巷电台</text>
<text x="472" y="360" class="body" fill="#2A160B">public · 2 NPC</text>
<rect x="450" y="430" width="216" height="58" rx="20" fill="#3A2114" stroke="#B78CFF" stroke-width="1.4" opacity="1" filter="url(#shadow)"/>
<text x="472" y="466" class="body">露西</text>
<rect x="450" y="508" width="216" height="58" rx="20" fill="#3A2114" stroke="#B78CFF" stroke-width="1.4" opacity="1" filter="url(#shadow)"/>
<text x="472" y="544" class="body">灰鸦</text>
<rect x="470" y="660" width="150" height="44" rx="22" fill="url(#parch)" stroke="#FFD36E" stroke-width="1.4" opacity="1" filter="url(#shadow)"/>
<text x="492" y="688" class="body" fill="#2A160B">进入酒馆</text>
<rect x="754" y="150" width="292" height="650" rx="44" fill="#1B0E07" stroke="#D69A35" stroke-width="1.4" opacity="1" filter="url(#shadow)"/>
<rect x="770" y="174" width="260" height="602" rx="34" fill="#2A170E" stroke="#FFD36E" stroke-width="1.4" opacity="1" filter="url(#shadow)"/>
<text x="792" y="222" class="h1">聊天</text>
<text x="792" y="250" class="tiny">单手可输入</text>
<rect x="792" y="286" width="186" height="58" rx="20" fill="#3A2114" stroke="#34E6D2" stroke-width="1.4" opacity="1" filter="url(#shadow)"/>
<text x="812" y="322" class="body">坐下聊聊？</text>
<rect x="822" y="378" width="186" height="58" rx="20" fill="#3A2114" stroke="#B78CFF" stroke-width="1.4" opacity="1" filter="url(#shadow)"/>
<text x="842" y="414" class="body">桥边的灯...</text>
<rect x="792" y="470" width="186" height="58" rx="20" fill="#3A2114" stroke="#34E6D2" stroke-width="1.4" opacity="1" filter="url(#shadow)"/>
<text x="812" y="506" class="body">我记得。</text>
<rect x="792" y="660" width="160" height="46" rx="23" fill="url(#parch)" stroke="#FFD36E" stroke-width="1.4" opacity="1" filter="url(#shadow)"/>
<rect x="960" y="660" width="48" height="44" rx="22" fill="url(#parch)" stroke="#FFD36E" stroke-width="1.4" opacity="1" filter="url(#shadow)"/>
<text x="982" y="688" class="body" fill="#2A160B">发</text>
<rect x="1096" y="150" width="292" height="650" rx="44" fill="#1B0E07" stroke="#D69A35" stroke-width="1.4" opacity="1" filter="url(#shadow)"/>
<rect x="1112" y="174" width="260" height="602" rx="34" fill="#2A170E" stroke="#FFD36E" stroke-width="1.4" opacity="1" filter="url(#shadow)"/>
<text x="1134" y="222" class="h1">回访</text>
<text x="1134" y="250" class="tiny">记忆反馈</text>
<rect x="1134" y="292" width="216" height="80" rx="22" fill="#3A2114" stroke="#FFD36E" stroke-width="1.4" opacity="1" filter="url(#shadow)"/>
<text x="1156" y="340" class="h2">新增记忆</text>
<rect x="1134" y="404" width="216" height="80" rx="22" fill="#3A2114" stroke="#8BE082" stroke-width="1.4" opacity="1" filter="url(#shadow)"/>
<text x="1156" y="452" class="h2">关系 +1</text>
<rect x="1134" y="516" width="216" height="80" rx="22" fill="#3A2114" stroke="#34E6D2" stroke-width="1.4" opacity="1" filter="url(#shadow)"/>
<text x="1156" y="564" class="h2">下次回访提示</text>
<rect x="1154" y="660" width="150" height="44" rx="22" fill="url(#parch)" stroke="#FFD36E" stroke-width="1.4" opacity="1" filter="url(#shadow)"/>
<text x="1176" y="688" class="body" fill="#2A160B">继续聊天</text>
<text x="72" y="902" class="note">视觉约束：移动端保留暖酒馆情绪，但交互仍是 FableMap 的发现/入场/聊天/回访。</text>
</svg>
