<svg xmlns="http://www.w3.org/2000/svg" width="1440" height="960" viewBox="0 0 1440 960">
<defs>
  <linearGradient id="bg" x1="0" y1="0" x2="1" y2="1"><stop offset="0" stop-color="#130905"/><stop offset="1" stop-color="#3A1D10"/></linearGradient>
  <filter id="glow" x="-40%" y="-40%" width="180%" height="180%"><feGaussianBlur stdDeviation="8" result="b"/><feMerge><feMergeNode in="b"/><feMergeNode in="SourceGraphic"/></feMerge></filter>
  <filter id="shadow" x="-30%" y="-30%" width="160%" height="160%"><feDropShadow dx="0" dy="12" stdDeviation="12" flood-color="#000" flood-opacity="0.28"/></filter>
  <style>
.title{font:900 36px 'Segoe UI','Noto Sans SC',Arial,sans-serif;letter-spacing:.3px}
.sub{font:600 16px 'Segoe UI','Noto Sans SC',Arial,sans-serif}
.h1{font:900 24px 'Segoe UI','Noto Sans SC',Arial,sans-serif}
.h2{font:800 18px 'Segoe UI','Noto Sans SC',Arial,sans-serif}
.body{font:600 14px 'Segoe UI','Noto Sans SC',Arial,sans-serif}
.tiny{font:800 12px 'Segoe UI','Noto Sans SC',Arial,sans-serif;letter-spacing:.4px}
.note{font:700 13px 'Segoe UI','Noto Sans SC',Arial,sans-serif}
</style>
</defs>
<rect width="1440" height="960" fill="url(#bg)"/>
<circle cx="120" cy="150" r="220" fill="#FFD36E" opacity="0.16" filter="url(#glow)"/>
<circle cx="1260" cy="120" r="260" fill="#34E6D2" opacity="0.14" filter="url(#glow)"/>
<text x="64" y="64" class="title" fill="#FFF2D4">A. 暖木质赛博酒馆</text>
<text x="64" y="94" class="sub" fill="#C9A875">木桌、铜边、羊皮纸、烛火；少量青色光表达地图锚点与 AI 状态。</text>
<text x="1160" y="62" class="tiny" fill="#34E6D2">FABLEMAP VISUAL THEME</text>
<rect x="64" y="132" width="1312" height="704" rx="34" fill="#3A2114" stroke="#FFD36E" stroke-width="1.6" filter="url(#shadow)"/>
<rect x="96" y="164" width="1248" height="64" rx="28" fill="#130905" stroke="#34E6D2" stroke-opacity="0.65"/>
<rect x="118" y="178" width="44" height="36" rx="14" fill="#FFD36E" stroke="#FFD36E"/>
<text x="129" y="203" class="h2" fill="#221509">FM</text>
<text x="182" y="203" class="h2" fill="#FFF2D4">FableMap</text>
<rect x="350" y="178" width="86" height="34" rx="17" fill="#34E6D2" fill-opacity="0.22" stroke="#34E6D2"/>
<text x="374" y="200" class="tiny" fill="#FFF2D4">发现</text>
<rect x="458" y="178" width="86" height="34" rx="17" fill="#FFD36E" fill-opacity="0.22" stroke="#FFD36E"/>
<text x="482" y="200" class="tiny" fill="#FFF2D4">开店</text>
<rect x="566" y="178" width="86" height="34" rx="17" fill="#B78CFF" fill-opacity="0.22" stroke="#B78CFF"/>
<text x="590" y="200" class="tiny" fill="#FFF2D4">入口</text>
<rect x="674" y="178" width="86" height="34" rx="17" fill="#34E6D2" fill-opacity="0.22" stroke="#34E6D2"/>
<text x="698" y="200" class="tiny" fill="#FFF2D4">管理台</text>
<rect x="96" y="260" width="390" height="510" rx="30" fill="#F0D7A3" stroke="#FFD36E" stroke-width="1.5" filter="url(#shadow)"/>
<text x="128" y="310" class="h1" fill="#221509">地图入口</text>
<text x="128" y="338" class="body" fill="#221509" opacity="0.75">真实坐标 · 附近酒馆 · 发光招牌</text>
<path d="M130 374 C210 344, 320 412, 452 370" fill="none" stroke="#3A2114" stroke-opacity="0.28"/>
<path d="M130 428 C210 398, 320 466, 452 424" fill="none" stroke="#3A2114" stroke-opacity="0.28"/>
<path d="M130 482 C210 452, 320 520, 452 478" fill="none" stroke="#3A2114" stroke-opacity="0.28"/>
<path d="M130 536 C210 506, 320 574, 452 532" fill="none" stroke="#3A2114" stroke-opacity="0.28"/>
<path d="M130 590 C210 560, 320 628, 452 586" fill="none" stroke="#3A2114" stroke-opacity="0.28"/>
<circle cx="208" cy="464" r="14" fill="#34E6D2" filter="url(#glow)"/>
<rect x="228" y="442" width="86" height="34" rx="14" fill="#3A2114" stroke="#34E6D2"/>
<text x="242" y="464" class="tiny" fill="#FFF2D4">雨巷</text>
<circle cx="336" cy="552" r="14" fill="#34E6D2" filter="url(#glow)"/>
<rect x="356" y="530" width="86" height="34" rx="14" fill="#3A2114" stroke="#34E6D2"/>
<text x="370" y="552" class="tiny" fill="#FFF2D4">桥边</text>
<circle cx="252" cy="636" r="14" fill="#34E6D2" filter="url(#glow)"/>
<rect x="272" y="614" width="86" height="34" rx="14" fill="#3A2114" stroke="#34E6D2"/>
<text x="286" y="636" class="tiny" fill="#FFF2D4">茶馆</text>
<rect x="526" y="260" width="390" height="510" rx="30" fill="#3A2114" stroke="#34E6D2" stroke-width="1.5" filter="url(#shadow)"/>
<text x="558" y="310" class="h1" fill="#FFF2D4">酒馆入口 / 聊天</text>
<rect x="558" y="360" width="302" height="70" rx="22" fill="#130905" stroke="#34E6D2"/>
<text x="582" y="387" class="tiny" fill="#34E6D2">NPC</text>
<text x="582" y="412" class="body" fill="#FFF2D4">欢迎回来，旅人。</text>
<rect x="558" y="460" width="302" height="70" rx="22" fill="#130905" stroke="#B78CFF"/>
<text x="582" y="487" class="tiny" fill="#B78CFF">你</text>
<text x="582" y="512" class="body" fill="#FFF2D4">桥边的灯还亮吗？</text>
<rect x="558" y="560" width="302" height="70" rx="22" fill="#130905" stroke="#FFD36E"/>
<text x="582" y="587" class="tiny" fill="#FFD36E">记忆</text>
<text x="582" y="612" class="body" fill="#FFF2D4">已写入回访提示</text>
<rect x="558" y="678" width="210" height="46" rx="23" fill="#FFD36E" stroke="#FFD36E"/>
<text x="590" y="707" class="body" fill="#221509">推门进入</text>
<rect x="956" y="260" width="388" height="510" rx="30" fill="#3A2114" stroke="#B78CFF" stroke-width="1.5" filter="url(#shadow)"/>
<text x="988" y="310" class="h1" fill="#FFF2D4">店主管理台</text>
<rect x="988" y="356" width="288" height="42" rx="18" fill="#34E6D2" fill-opacity="0.20" stroke="#34E6D2"/>
<text x="1012" y="383" class="body" fill="#FFF2D4">角色卡</text>
<rect x="988" y="422" width="288" height="42" rx="18" fill="#FFD36E" fill-opacity="0.20" stroke="#FFD36E"/>
<text x="1012" y="449" class="body" fill="#FFF2D4">WorldInfo</text>
<rect x="988" y="488" width="288" height="42" rx="18" fill="#B78CFF" fill-opacity="0.20" stroke="#B78CFF"/>
<text x="1012" y="515" class="body" fill="#FFF2D4">Prompt Blocks</text>
<rect x="988" y="554" width="288" height="42" rx="18" fill="#34E6D2" fill-opacity="0.20" stroke="#34E6D2"/>
<text x="1012" y="581" class="body" fill="#FFF2D4">Runtime Presets</text>
<rect x="988" y="620" width="288" height="42" rx="18" fill="#FFD36E" fill-opacity="0.20" stroke="#FFD36E"/>
<text x="1012" y="647" class="body" fill="#FFF2D4">导入/导出脱敏</text>
<text x="96" y="884" class="h2" fill="#FFF2D4">关键词</text>
<rect x="184" y="858" width="168" height="38" rx="19" fill="#34E6D2" fill-opacity="0.22" stroke="#34E6D2"/>
<text x="200" y="882" class="tiny" fill="#FFF2D4">cozy tavern</text>
<rect x="374" y="858" width="168" height="38" rx="19" fill="#FFD36E" fill-opacity="0.22" stroke="#FFD36E"/>
<text x="390" y="882" class="tiny" fill="#FFF2D4">brass trim</text>
<rect x="564" y="858" width="168" height="38" rx="19" fill="#B78CFF" fill-opacity="0.22" stroke="#B78CFF"/>
<text x="580" y="882" class="tiny" fill="#FFF2D4">parchment</text>
<rect x="754" y="858" width="168" height="38" rx="19" fill="#34E6D2" fill-opacity="0.22" stroke="#34E6D2"/>
<text x="770" y="882" class="tiny" fill="#FFF2D4">candle light</text>
<rect x="944" y="858" width="168" height="38" rx="19" fill="#FFD36E" fill-opacity="0.22" stroke="#FFD36E"/>
<text x="960" y="882" class="tiny" fill="#FFF2D4">cyber map pin</text>
<text x="96" y="922" class="note" fill="#FFD36E">边界：不出现具体卡背、法力水晶、英雄技能、牌桌对战语义。</text>
</svg>
