<svg xmlns="http://www.w3.org/2000/svg" viewBox="0 0 64 64" width="64" height="64" role="img" aria-label="night bloom emblem">
  <defs><radialGradient id="bg" cx="50%" cy="35%" r="70%"><stop offset="0" stop-color="#c8a7ff"/><stop offset="1" stop-color="#2f1b63"/></radialGradient></defs>
  <circle cx="32" cy="32" r="29" fill="url(#bg)" stroke="#9f7aea" stroke-width="2"/>
  <path d="M41 13c-9 4-13 14-8 23 3 5 8 8 14 8-5 5-13 7-21 3-10-5-14-17-9-27 5-9 15-12 24-7z" fill="#f4ecff" opacity=".96"/><path d="M32 31c0-8 4-13 9-16M32 31c-7-4-13-3-18 2M32 31c-2 8 1 14 8 18M32 31c5 5 12 5 18 1M32 31c-7 1-11 6-12 14" fill="none" stroke="#f0dcff" stroke-width="3" stroke-linecap="round"/><circle cx="32" cy="31" r="5" fill="#ffd6f7"/>
</svg>
